<svg xmlns="http://www.w3.org/2000/svg" aria-hidden="true" style="position:absolute;width:0;height:0;overflow:hidden"><defs><symbol id="icon-instagram" viewBox="0 0 40 40"><path fill="#f4f4fd" d="M40 20c0 5.523-2.239 10.523-5.858 14.142S25.523 40 20 40 9.477 37.761 5.858 34.142 0 25.523 0 20 2.239 9.477 5.858 5.858 14.477 0 20 0s10.523 2.239 14.142 5.858S40 14.477 40 20z" style="fill:var(--color1, #f4f4fd)"/><path d="M27.984 16.704c-.038-.85-.175-1.435-.372-1.941a3.904 3.904 0 0 0-.925-1.419 3.944 3.944 0 0 0-1.416-.922c-.509-.197-1.091-.334-1.941-.372-.856-.041-1.128-.05-3.301-.05s-2.444.009-3.297.047c-.85.037-1.435.175-1.941.372a3.904 3.904 0 0 0-1.419.925c-.406.4-.722.885-.922 1.416-.197.509-.334 1.091-.372 1.941-.041.856-.05 1.128-.05 3.301s.009 2.444.047 3.298c.037.85.175 1.435.372 1.941.203.538.519 1.019.925 1.419.4.406.885.722 1.416.922.509.197 1.091.334 1.941.372.853.038 1.125.047 3.297.047s2.444-.009 3.297-.047c.85-.037 1.435-.175 1.941-.372a4.095 4.095 0 0 0 2.341-2.341c.197-.509.334-1.091.372-1.941.038-.853.047-1.125.047-3.298s-.003-2.444-.041-3.297zm-1.44 6.532c-.034.781-.166 1.203-.275 1.485a2.655 2.655 0 0 1-1.519 1.519c-.281.109-.706.241-1.485.275-.844.038-1.097.047-3.232.047s-2.391-.009-3.232-.047c-.781-.034-1.203-.166-1.485-.275a2.453 2.453 0 0 1-.919-.597 2.477 2.477 0 0 1-.597-.919c-.109-.281-.241-.706-.275-1.485-.038-.844-.047-1.097-.047-3.232s.009-2.391.047-3.232c.034-.781.166-1.203.275-1.485.128-.347.331-.663.6-.919.259-.266.572-.469.919-.597.281-.109.706-.241 1.485-.275.844-.037 1.097-.047 3.232-.047 2.138 0 2.391.009 3.232.047.781.034 1.203.166 1.485.275.347.128.663.331.919.597.266.259.469.572.597.919.109.281.241.706.275 1.485.038.844.047 1.097.047 3.232s-.009 2.385-.047 3.229z"/><path d="M20.03 15.891a4.111 4.111 0 0 0 0 8.22 4.111 4.111 0 0 0 0-8.22zm0 6.777a2.667 2.667 0 1 1 .001-5.333 2.667 2.667 0 0 1-.001 5.333zM25.262 15.729a.96.96 0 1 1-1.919 0 .96.96 0 0 1 1.919 0z"/></symbol><symbol id="icon-linkedin" viewBox="0 0 40 40"><path fill="#f4f4fd" d="M40 20c0 5.523-2.239 10.523-5.858 14.142S25.523 40 20 40 9.477 37.761 5.858 34.142 0 25.523 0 20 2.239 9.477 5.858 5.858 14.477 0 20 0s10.523 2.239 14.142 5.858S40 14.477 40 20z" style="fill:var(--color1, #f4f4fd)"/><path d="M27.996 28v-.001H28v-5.868c0-2.871-.618-5.082-3.974-5.082-1.613 0-2.696.885-3.138 1.725h-.047v-1.457h-3.182v10.682h3.313V22.71c0-1.393.264-2.739 1.989-2.739 1.699 0 1.725 1.589 1.725 2.829v5.201h3.31zM12.264 17.318h3.317V28h-3.317V17.318zM13.921 12C12.86 12 12 12.861 12 13.921s.861 1.939 1.921 1.939c1.061 0 1.921-.879 1.921-1.939S14.981 12 13.921 12z"/></symbol><symbol id="icon-twitter" viewBox="0 0 40 40"><path fill="#f4f4fd" d="M40 20c0 5.523-2.239 10.523-5.858 14.142S25.523 40 20 40 9.477 37.761 5.858 34.142 0 25.523 0 20 2.239 9.477 5.858 5.858 14.477 0 20 0s10.523 2.239 14.142 5.858S40 14.477 40 20z" style="fill:var(--color1, #f4f4fd)"/><path d="M28 15.039a6.839 6.839 0 0 1-1.89.518 3.262 3.262 0 0 0 1.443-1.813 6.555 6.555 0 0 1-2.08.794 3.28 3.28 0 0 0-5.674 2.243c0 .26.022.51.076.748a9.284 9.284 0 0 1-6.761-3.431 3.285 3.285 0 0 0 1.008 4.384 3.24 3.24 0 0 1-1.482-.404v.036a3.295 3.295 0 0 0 2.628 3.223 3.274 3.274 0 0 1-.86.108 2.9 2.9 0 0 1-.621-.056 3.311 3.311 0 0 0 3.065 2.285 6.59 6.59 0 0 1-4.067 1.399c-.269 0-.527-.012-.785-.045a9.234 9.234 0 0 0 5.032 1.472c6.036 0 9.336-5 9.336-9.334 0-.145-.005-.285-.012-.424A6.544 6.544 0 0 0 28 15.039z"/></symbol><symbol id="icon-facebook" viewBox="0 0 40 40"><path fill="#f4f4fd" d="M40 20c0 5.523-2.239 10.523-5.858 14.142S25.523 40 20 40 9.477 37.761 5.858 34.142 0 25.523 0 20 2.239 9.477 5.858 5.858 14.477 0 20 0s10.523 2.239 14.142 5.858S40 14.477 40 20z" style="fill:var(--color1, #f4f4fd)"/><path d="M22.665 14.656h1.461v-2.544a18.755 18.755 0 0 0-2.128-.113c-2.106 0-3.549 1.325-3.549 3.759v2.241h-2.324v2.844h2.324v7.156h2.849v-7.155h2.23L23.882 18h-2.585v-1.959c.001-.822.222-1.385 1.367-1.385z"/></symbol></defs></svg>